# 3ds Max Wavefront OBJ Exporter v0.97b - (c)2007 guruware
# File Created: 05.03.2019 20:49:26

mtllib SimpleHose.mtl

#
# object Hose001
#

v  0.3898 1.1998 0.0000
v  -1.0206 0.7415 0.0000
v  -1.0206 -0.7415 0.0000
v  0.3898 -1.1998 0.0000
v  1.2616 0.0000 0.0000
v  0.3872 1.1917 0.3281
v  -1.0137 0.7365 0.3281
v  -1.0137 -0.7365 0.3281
v  0.3872 -1.1917 0.3281
v  1.2530 0.0000 0.3281
v  0.2366 0.7281 0.6562
v  -0.6193 0.4500 0.6562
v  -0.6193 -0.4500 0.6562
v  0.2366 -0.7281 0.6562
v  0.7655 0.0000 0.6562
v  0.3670 1.1295 0.9843
v  -0.9609 0.6981 0.9843
v  -0.9609 -0.6981 0.9843
v  0.3670 -1.1295 0.9843
v  1.1877 0.0000 0.9843
v  0.2917 0.8978 1.3123
v  -0.7637 0.5548 1.3123
v  -0.7637 -0.5548 1.3123
v  0.2917 -0.8978 1.3123
v  0.9440 0.0000 1.3123
v  0.2917 0.8978 1.6404
v  -0.7637 0.5548 1.6404
v  -0.7637 -0.5548 1.6404
v  0.2917 -0.8978 1.6404
v  0.9440 0.0000 1.6404
v  0.3670 1.1295 1.9685
v  -0.9609 0.6981 1.9685
v  -0.9609 -0.6981 1.9685
v  0.3670 -1.1295 1.9685
v  1.1877 0.0000 1.9685
v  0.2366 0.7281 2.2966
v  -0.6193 0.4500 2.2966
v  -0.6193 -0.4500 2.2966
v  0.2366 -0.7281 2.2966
v  0.7655 0.0000 2.2966
v  0.3872 1.1917 2.6247
v  -1.0137 0.7365 2.6247
v  -1.0137 -0.7365 2.6247
v  0.3872 -1.1917 2.6247
v  1.2530 0.0000 2.6247
v  0.3898 1.1998 2.9528
v  -1.0206 0.7415 2.9528
v  -1.0206 -0.7415 2.9528
v  0.3898 -1.1998 2.9528
v  1.2616 0.0000 2.9528
# 50 vertices

vn -0.6556 0.4763 -0.5859
vn 0.2504 0.7707 -0.5859
vn 0.8104 0.0000 -0.5859
vn 0.2504 -0.7707 -0.5859
vn -0.6556 -0.4763 -0.5859
vn -0.7339 0.5332 0.4207
vn 0.2803 0.8628 0.4207
vn 0.2504 0.7707 -0.5859
vn -0.6556 0.4763 -0.5859
vn -0.7339 -0.5332 0.4207
vn -0.7339 0.5332 0.4207
vn -0.6556 0.4763 -0.5859
vn -0.6556 -0.4763 -0.5859
vn 0.2803 -0.8628 0.4207
vn -0.7339 -0.5332 0.4207
vn -0.6556 -0.4763 -0.5859
vn 0.2504 -0.7707 -0.5859
vn 0.9072 -0.0000 0.4207
vn 0.2803 -0.8628 0.4207
vn 0.2504 -0.7707 -0.5859
vn 0.8104 0.0000 -0.5859
vn 0.2803 0.8628 0.4207
vn 0.9072 -0.0000 0.4207
vn 0.8104 0.0000 -0.5859
vn 0.2504 0.7707 -0.5859
vn -0.8079 0.5870 0.0530
vn 0.3086 0.9497 0.0530
vn 0.2803 0.8628 0.4207
vn -0.7339 0.5332 0.4207
vn -0.8079 -0.5870 0.0530
vn -0.8079 0.5870 0.0530
vn -0.7339 0.5332 0.4207
vn -0.7339 -0.5332 0.4207
vn 0.3086 -0.9497 0.0530
vn -0.8079 -0.5870 0.0530
vn -0.7339 -0.5332 0.4207
vn 0.2803 -0.8628 0.4207
vn 0.9986 0.0000 0.0530
vn 0.3086 -0.9497 0.0530
vn 0.2803 -0.8628 0.4207
vn 0.9072 -0.0000 0.4207
vn 0.3086 0.9497 0.0530
vn 0.9986 0.0000 0.0530
vn 0.9072 -0.0000 0.4207
vn 0.2803 0.8628 0.4207
vn -0.8041 0.5842 -0.1097
vn 0.3072 0.9453 -0.1097
vn 0.3086 0.9497 0.0530
vn -0.8079 0.5870 0.0530
vn -0.8041 -0.5842 -0.1097
vn -0.8041 0.5842 -0.1097
vn -0.8079 0.5870 0.0530
vn -0.8079 -0.5870 0.0530
vn 0.3072 -0.9453 -0.1097
vn -0.8041 -0.5842 -0.1097
vn -0.8079 -0.5870 0.0530
vn 0.3086 -0.9497 0.0530
vn 0.9940 0.0000 -0.1097
vn 0.3072 -0.9453 -0.1097
vn 0.3086 -0.9497 0.0530
vn 0.9986 0.0000 0.0530
vn 0.3072 0.9453 -0.1097
vn 0.9940 0.0000 -0.1097
vn 0.9986 0.0000 0.0530
vn 0.3086 0.9497 0.0530
vn -0.7560 0.5493 0.3560
vn 0.2888 0.8888 0.3560
vn 0.3072 0.9453 -0.1097
vn -0.8041 0.5842 -0.1097
vn -0.7560 -0.5493 0.3560
vn -0.7560 0.5493 0.3560
vn -0.8041 0.5842 -0.1097
vn -0.8041 -0.5842 -0.1097
vn 0.2887 -0.8888 0.3560
vn -0.7560 -0.5493 0.3560
vn -0.8041 -0.5842 -0.1097
vn 0.3072 -0.9453 -0.1097
vn 0.9345 0.0000 0.3560
vn 0.2887 -0.8888 0.3560
vn 0.3072 -0.9453 -0.1097
vn 0.9940 0.0000 -0.1097
vn 0.2888 0.8888 0.3560
vn 0.9345 0.0000 0.3560
vn 0.9940 0.0000 -0.1097
vn 0.3072 0.9453 -0.1097
vn -0.7560 0.5493 -0.3560
vn 0.2888 0.8888 -0.3560
vn 0.2888 0.8888 0.3560
vn -0.7560 0.5493 0.3560
vn -0.7560 -0.5493 -0.3560
vn -0.7560 0.5493 -0.3560
vn -0.7560 0.5493 0.3560
vn -0.7560 -0.5493 0.3560
vn 0.2888 -0.8888 -0.3560
vn -0.7560 -0.5493 -0.3560
vn -0.7560 -0.5493 0.3560
vn 0.2887 -0.8888 0.3560
vn 0.9345 0.0000 -0.3560
vn 0.2888 -0.8888 -0.3560
vn 0.2887 -0.8888 0.3560
vn 0.9345 0.0000 0.3560
vn 0.2888 0.8888 -0.3560
vn 0.9345 0.0000 -0.3560
vn 0.9345 0.0000 0.3560
vn 0.2888 0.8888 0.3560
vn -0.8041 0.5842 0.1097
vn 0.3072 0.9453 0.1097
vn 0.2888 0.8888 -0.3560
vn -0.7560 0.5493 -0.3560
vn -0.8041 -0.5842 0.1097
vn -0.8041 0.5842 0.1097
vn -0.7560 0.5493 -0.3560
vn -0.7560 -0.5493 -0.3560
vn 0.3072 -0.9453 0.1097
vn -0.8041 -0.5842 0.1097
vn -0.7560 -0.5493 -0.3560
vn 0.2888 -0.8888 -0.3560
vn 0.9940 0.0000 0.1097
vn 0.3072 -0.9453 0.1097
vn 0.2888 -0.8888 -0.3560
vn 0.9345 0.0000 -0.3560
vn 0.3072 0.9453 0.1097
vn 0.9940 0.0000 0.1097
vn 0.9345 0.0000 -0.3560
vn 0.2888 0.8888 -0.3560
vn -0.8079 0.5870 -0.0530
vn 0.3086 0.9497 -0.0530
vn 0.3072 0.9453 0.1097
vn -0.8041 0.5842 0.1097
vn -0.8079 -0.5870 -0.0530
vn -0.8079 0.5870 -0.0530
vn -0.8041 0.5842 0.1097
vn -0.8041 -0.5842 0.1097
vn 0.3086 -0.9497 -0.0530
vn -0.8079 -0.5870 -0.0530
vn -0.8041 -0.5842 0.1097
vn 0.3072 -0.9453 0.1097
vn 0.9986 0.0000 -0.0530
vn 0.3086 -0.9497 -0.0530
vn 0.3072 -0.9453 0.1097
vn 0.9940 0.0000 0.1097
vn 0.3086 0.9497 -0.0530
vn 0.9986 0.0000 -0.0530
vn 0.9940 0.0000 0.1097
vn 0.3072 0.9453 0.1097
vn -0.7339 0.5332 -0.4207
vn 0.2803 0.8628 -0.4207
vn 0.3086 0.9497 -0.0530
vn -0.8079 0.5870 -0.0530
vn -0.7339 -0.5332 -0.4207
vn -0.7339 0.5332 -0.4207
vn -0.8079 0.5870 -0.0530
vn -0.8079 -0.5870 -0.0530
vn 0.2803 -0.8628 -0.4207
vn -0.7339 -0.5332 -0.4207
vn -0.8079 -0.5870 -0.0530
vn 0.3086 -0.9497 -0.0530
vn 0.9072 0.0000 -0.4207
vn 0.2803 -0.8628 -0.4207
vn 0.3086 -0.9497 -0.0530
vn 0.9986 0.0000 -0.0530
vn 0.2803 0.8628 -0.4207
vn 0.9072 0.0000 -0.4207
vn 0.9986 0.0000 -0.0530
vn 0.3086 0.9497 -0.0530
vn -0.6556 0.4763 0.5859
vn 0.2504 0.7707 0.5859
vn 0.2803 0.8628 -0.4207
vn -0.7339 0.5332 -0.4207
vn -0.6556 -0.4763 0.5859
vn -0.6556 0.4763 0.5859
vn -0.7339 0.5332 -0.4207
vn -0.7339 -0.5332 -0.4207
vn 0.2504 -0.7707 0.5859
vn -0.6556 -0.4763 0.5859
vn -0.7339 -0.5332 -0.4207
vn 0.2803 -0.8628 -0.4207
vn 0.8104 0.0000 0.5859
vn 0.2504 -0.7707 0.5859
vn 0.2803 -0.8628 -0.4207
vn 0.9072 0.0000 -0.4207
vn 0.2504 0.7707 0.5859
vn 0.8104 0.0000 0.5859
vn 0.9072 0.0000 -0.4207
vn 0.2803 0.8628 -0.4207
vn 0.2504 0.7707 0.5859
vn -0.6556 0.4763 0.5859
vn -0.6556 -0.4763 0.5859
vn 0.2504 -0.7707 0.5859
vn 0.8104 0.0000 0.5859
# 190 vertex normals

vt 0.0000 0.2000 0.5000
vt 0.0000 0.0000 0.5000
vt 0.0000 0.8000 0.5000
vt 0.0000 0.6000 0.5000
vt 0.0000 0.4000 0.5000
vt 0.1111 0.2000 0.5000
vt 0.1111 0.0000 0.5000
vt 0.1111 0.4000 0.5000
vt 0.1111 0.6000 0.5000
vt 0.1111 0.8000 0.5000
vt 0.1111 0.9990 0.0000
vt 0.0000 0.9990 0.0000
vt 0.2222 0.2000 0.5000
vt 0.2222 0.0000 0.5000
vt 0.2222 0.4000 0.5000
vt 0.2222 0.6000 0.5000
vt 0.2222 0.8000 0.5000
vt 0.2222 0.9990 0.0000
vt 0.3333 0.2000 0.5000
vt 0.3333 0.0000 0.5000
vt 0.3333 0.4000 0.5000
vt 0.3333 0.6000 0.5000
vt 0.3333 0.8000 0.5000
vt 0.3333 0.9990 0.0000
vt 0.4444 0.2000 0.5000
vt 0.4444 0.0000 0.5000
vt 0.4444 0.4000 0.5000
vt 0.4444 0.6000 0.5000
vt 0.4444 0.8000 0.5000
vt 0.4444 0.9990 0.0000
vt 0.5556 0.2000 0.5000
vt 0.5556 0.0000 0.5000
vt 0.5556 0.4000 0.5000
vt 0.5556 0.6000 0.5000
vt 0.5556 0.8000 0.5000
vt 0.5556 0.9990 0.0000
vt 0.6667 0.2000 0.5000
vt 0.6667 0.0000 0.5000
vt 0.6667 0.4000 0.5000
vt 0.6667 0.6000 0.5000
vt 0.6667 0.8000 0.5000
vt 0.6667 0.9990 0.0000
vt 0.7778 0.2000 0.5000
vt 0.7778 0.0000 0.5000
vt 0.7778 0.4000 0.5000
vt 0.7778 0.6000 0.5000
vt 0.7778 0.8000 0.5000
vt 0.7778 0.9990 0.0000
vt 0.8889 0.2000 0.5000
vt 0.8889 0.0000 0.5000
vt 0.8889 0.4000 0.5000
vt 0.8889 0.6000 0.5000
vt 0.8889 0.8000 0.5000
vt 0.8889 0.9990 0.0000
vt 1.0000 0.2000 0.5000
vt 1.0000 0.0000 0.5000
vt 1.0000 0.4000 0.5000
vt 1.0000 0.6000 0.5000
vt 1.0000 0.8000 0.5000
vt 1.0000 0.9990 0.0000
vt 1.0000 1.1820 1.1910
# 61 texture coords

o Hose001
g Hose001
usemtl wire_184228153
s 1
f 2/1/1 1/2/2 5/3/3 4/4/4 3/5/5 
s 2
f 7/6/6 6/7/7 1/2/8 2/1/9 
s 8
f 8/8/10 7/6/11 2/1/12 3/5/13 
s 4
f 9/9/14 8/8/15 3/5/16 4/4/17 
s 8
f 10/10/18 9/9/19 4/4/20 5/3/21 
s 4
f 6/11/22 10/10/23 5/3/24 1/12/25 
s 2
f 12/13/26 11/14/27 6/7/28 7/6/29 
s 8
f 13/15/30 12/13/31 7/6/32 8/8/33 
s 4
f 14/16/34 13/15/35 8/8/36 9/9/37 
s 8
f 15/17/38 14/16/39 9/9/40 10/10/41 
s 4
f 11/18/42 15/17/43 10/10/44 6/11/45 
s 2
f 17/19/46 16/20/47 11/14/48 12/13/49 
s 8
f 18/21/50 17/19/51 12/13/52 13/15/53 
s 4
f 19/22/54 18/21/55 13/15/56 14/16/57 
s 8
f 20/23/58 19/22/59 14/16/60 15/17/61 
s 4
f 16/24/62 20/23/63 15/17/64 11/18/65 
s 2
f 22/25/66 21/26/67 16/20/68 17/19/69 
s 8
f 23/27/70 22/25/71 17/19/72 18/21/73 
s 4
f 24/28/74 23/27/75 18/21/76 19/22/77 
s 8
f 25/29/78 24/28/79 19/22/80 20/23/81 
s 4
f 21/30/82 25/29/83 20/23/84 16/24/85 
s 2
f 27/31/86 26/32/87 21/26/88 22/25/89 
s 8
f 28/33/90 27/31/91 22/25/92 23/27/93 
s 4
f 29/34/94 28/33/95 23/27/96 24/28/97 
s 8
f 30/35/98 29/34/99 24/28/100 25/29/101 
s 4
f 26/36/102 30/35/103 25/29/104 21/30/105 
s 2
f 32/37/106 31/38/107 26/32/108 27/31/109 
s 8
f 33/39/110 32/37/111 27/31/112 28/33/113 
s 4
f 34/40/114 33/39/115 28/33/116 29/34/117 
s 8
f 35/41/118 34/40/119 29/34/120 30/35/121 
s 4
f 31/42/122 35/41/123 30/35/124 26/36/125 
s 2
f 37/43/126 36/44/127 31/38/128 32/37/129 
s 8
f 38/45/130 37/43/131 32/37/132 33/39/133 
s 4
f 39/46/134 38/45/135 33/39/136 34/40/137 
s 8
f 40/47/138 39/46/139 34/40/140 35/41/141 
s 4
f 36/48/142 40/47/143 35/41/144 31/42/145 
s 2
f 42/49/146 41/50/147 36/44/148 37/43/149 
s 8
f 43/51/150 42/49/151 37/43/152 38/45/153 
s 4
f 44/52/154 43/51/155 38/45/156 39/46/157 
s 8
f 45/53/158 44/52/159 39/46/160 40/47/161 
s 4
f 41/54/162 45/53/163 40/47/164 36/48/165 
s 2
f 47/55/166 46/56/167 41/50/168 42/49/169 
s 8
f 48/57/170 47/55/171 42/49/172 43/51/173 
s 4
f 49/58/174 48/57/175 43/51/176 44/52/177 
s 8
f 50/59/178 49/58/179 44/52/180 45/53/181 
s 4
f 46/60/182 50/59/183 45/53/184 41/54/185 
s 1
f 46/56/186 47/55/187 48/57/188 49/58/189 50/61/190 
# 47 polygons

