# 3ds Max Wavefront OBJ Exporter v0.97b - (c)2007 guruware
# File Created: 03.04.2019 08:55:27

mtllib GreyJ319.mtl

#
# object Box2219
#

v  181.5521 123.0567 31.0476
v  194.5442 123.0567 31.0476
v  181.5521 136.0489 31.0476
v  194.5442 136.0489 31.0476
v  181.5521 123.0567 49.9452
v  194.5442 123.0567 49.9452
v  181.5521 136.0489 49.9452
v  194.5442 136.0489 49.9452
v  182.3395 123.8441 50.7326
v  193.7568 123.8441 50.7326
v  182.3395 135.2615 50.7326
v  193.7568 135.2615 50.7326
# 12 vertices

vn -0.5774 -0.5774 -0.5774
vn -0.5774 0.5774 -0.5774
vn 0.5774 0.5774 -0.5774
vn 0.5774 -0.5774 -0.5774
vn -0.3002 -0.3002 0.9054
vn 0.3002 -0.3002 0.9054
vn 0.3002 0.3002 0.9054
vn -0.3002 0.3002 0.9054
vn -0.5774 -0.5774 -0.5774
vn 0.5774 -0.5774 -0.5774
vn 0.6507 -0.6507 0.3914
vn -0.6507 -0.6507 0.3914
vn 0.5774 -0.5774 -0.5774
vn 0.5774 0.5774 -0.5774
vn 0.6507 0.6507 0.3914
vn 0.6507 -0.6507 0.3914
vn 0.5774 0.5774 -0.5774
vn -0.5774 0.5774 -0.5774
vn -0.6507 0.6507 0.3914
vn 0.6507 0.6507 0.3914
vn -0.5774 0.5774 -0.5774
vn -0.5774 -0.5774 -0.5774
vn -0.6507 -0.6507 0.3914
vn -0.6507 0.6507 0.3914
vn -0.3002 -0.3002 0.9054
vn -0.6507 -0.6507 0.3914
vn 0.6507 -0.6507 0.3914
vn 0.3002 -0.3002 0.9054
vn 0.3002 -0.3002 0.9054
vn 0.6507 -0.6507 0.3914
vn 0.6507 0.6507 0.3914
vn 0.3002 0.3002 0.9054
vn 0.3002 0.3002 0.9054
vn 0.6507 0.6507 0.3914
vn -0.6507 0.6507 0.3914
vn -0.3002 0.3002 0.9054
vn -0.3002 0.3002 0.9054
vn -0.6507 0.6507 0.3914
vn -0.6507 -0.6507 0.3914
vn -0.3002 -0.3002 0.9054
# 40 vertex normals

vt 1.0000 0.0000 0.0000
vt 1.0000 1.0000 0.0000
vt 0.0000 1.0000 0.0000
vt 0.0000 0.0000 0.0000
vt 0.0606 0.0606 0.0000
vt 0.9394 0.0606 0.0000
vt 0.9394 0.9394 0.0000
vt 0.0606 0.9394 0.0000
vt 1.0000 0.9600 0.0000
vt 0.0000 0.9600 0.0000
vt 0.0606 1.0576 0.0000
vt 0.9394 1.0576 0.0000
# 12 texture coords

o Box2219
g Box2219
usemtl wire_143225087
s 1
f 1/1/1 3/2/2 4/3/3 2/4/4 
f 9/5/5 10/6/6 12/7/7 11/8/8 
s 2
f 1/4/9 2/1/10 6/9/11 5/10/12 
s 4
f 2/4/13 4/1/14 8/9/15 6/10/16 
s 2
f 4/4/17 3/1/18 7/9/19 8/10/20 
s 4
f 3/4/21 1/1/22 5/9/23 7/10/24 
s 8
f 9/11/25 5/10/26 6/9/27 10/12/28 
s 16
f 10/11/29 6/10/30 8/9/31 12/12/32 
s 8
f 12/11/33 8/10/34 7/9/35 11/12/36 
s 16
f 11/11/37 7/10/38 5/9/39 9/12/40 
# 10 polygons

