<svg id="Layer_1" data-name="Layer 1" xmlns="http://www.w3.org/2000/svg" viewBox="0 0 500 500"><defs><style>.cls-1{fill:#38d39f;}.cls-2{fill:#2d2d2d;}</style></defs><title>logo</title><rect class="cls-1" x="0.5" y="0.5" width="499" height="499"/><path d="M499,1V499H1V1H499m1-1H0V500H500V0Z"/><path class="cls-2" d="M476,24V476H24V24H476M500,0H0V500H500V0Z"/><path class="cls-2" d="M78.58,250c0-58.47,44.2-98.4,101.25-98.4,41.93,0,66.17,22.82,79.58,46.49l-34.8,17.11c-8-15.4-25.1-27.66-44.78-27.66-34.51,0-59.61,26.52-59.61,62.46s25.1,62.46,59.61,62.46c19.68,0,36.79-12,44.78-27.66l34.8,16.82c-13.69,23.68-37.65,46.78-79.58,46.78C122.78,348.4,78.58,308.47,78.58,250Z"/><path class="cls-2" d="M377.49,345V327.3C366.65,341,351.54,348.4,335,348.4c-34.8,0-61-26.24-61-72.16,0-45.06,26-72.45,61-72.45a53,53,0,0,1,42.5,21.11V154.74H414V345Zm0-44.5V251.71c-6-9.13-19.11-15.69-31.37-15.69-20.54,0-34.8,16.26-34.8,40.22,0,23.67,14.26,39.93,34.8,39.93C358.38,316.17,371.5,309.61,377.49,300.48Z"/></svg>