<svg id="Layer_1" data-name="Layer 1" xmlns="http://www.w3.org/2000/svg" viewBox="0 0 1000 321.1"><defs><style>.cls-1{fill:#2d2d2d;}</style></defs><title>wordmark</title><path class="cls-1" d="M0,58.72C0,23.8,26.4,0,60.46,0,85.49,0,100,13.59,108,27.72L87.2,37.94c-4.77-9.2-15-16.52-26.74-16.52-20.61,0-35.59,15.84-35.59,37.3S39.85,96,60.46,96A30.48,30.48,0,0,0,87.2,79.5l20.78,10c-8.18,14.14-22.49,27.93-47.52,27.93C26.4,117.47,0,93.63,0,58.72Z"/><path class="cls-1" d="M171.33,115.43v-8.51c-5.62,6.64-15.33,10.55-26.06,10.55-13.11,0-28.61-8.85-28.61-27.25,0-19.24,15.5-26.56,28.61-26.56,10.9,0,20.61,3.57,26.06,10V62.63c0-8.34-7.16-13.79-18.06-13.79a34.62,34.62,0,0,0-24,9.71l-8.17-14.48c10-8.85,23-12.94,35.93-12.94,18.73,0,35.94,7.49,35.94,31.16v53.14Zm0-19.76V85.46c-3.58-4.77-10.39-7.16-17.37-7.16-8.52,0-15.5,4.43-15.5,12.44,0,7.66,7,12.09,15.5,12.09C160.94,102.83,167.75,100.44,171.33,95.67Z"/><path class="cls-1" d="M214.41,115.43V33.17H236V44.41c5.79-7.32,16-13.28,26.23-13.28V52.25a28.78,28.78,0,0,0-6-.51c-7.16,0-16.69,4.08-20.27,9.36v54.33Z"/><path class="cls-1" d="M275.72,115.43V1.83h21.63v113.6Z"/><path class="cls-1" d="M313.53,74.22c0-23.34,16.34-43.09,43.42-43.09,27.25,0,43.6,19.75,43.6,43.09,0,23.5-16.35,43.25-43.6,43.25C329.87,117.47,313.53,97.72,313.53,74.22Zm64.54,0c0-12.78-7.66-23.85-21.12-23.85S336,61.44,336,74.22c0,12.94,7.49,24,20.94,24S378.07,87.16,378.07,74.22Z"/><path class="cls-1" d="M460.66,115.43V1.83h80.39V23.12h-56.2v24h55V68.43h-55v47Z"/><path class="cls-1" d="M552.12,74.22c0-23.34,16.35-43.09,43.43-43.09,27.25,0,43.6,19.75,43.6,43.09,0,23.5-16.35,43.25-43.6,43.25C568.47,117.47,552.12,97.72,552.12,74.22Zm64.54,0c0-12.78-7.66-23.85-21.11-23.85S574.6,61.44,574.6,74.22c0,12.94,7.49,24,20.95,24S616.66,87.16,616.66,74.22Z"/><path class="cls-1" d="M655.15,115.43V33.17h21.63V44.41c5.79-7.32,16-13.28,26.23-13.28V52.25a28.84,28.84,0,0,0-6-.51c-7.16,0-16.69,4.08-20.27,9.36v54.33Z"/><path class="cls-1" d="M716.46,115.43V33.17h21.63V44.41c5.79-7.32,16-13.28,26.22-13.28V52.25a28.71,28.71,0,0,0-6-.51c-7.15,0-16.69,4.08-20.26,9.36v54.33Z"/><path class="cls-1" d="M772.48,74.22c0-23.85,17.55-43.09,42.58-43.09,24.52,0,41.22,18.39,41.22,45.3V81.2H795.13c1.37,10.39,9.71,19.07,23.68,19.07,7,0,16.69-3.06,22-8.17l9.53,14c-8.17,7.5-21.11,11.41-33.89,11.41C791.39,117.47,772.48,100.61,772.48,74.22Zm42.58-25.89c-13.45,0-19.24,10.05-20.27,18.22h40.54C834.82,58.72,829.37,48.33,815.06,48.33Z"/><path class="cls-1" d="M864.79,104.7l9.36-15.16c6,5.62,18.23,11.24,28.45,11.24,9.36,0,13.79-3.74,13.79-8.85,0-13.63-48.88-2.56-48.88-34.92,0-13.79,12.09-25.88,33.72-25.88a52.53,52.53,0,0,1,33.21,11.24l-8.68,14.82c-4.94-5.28-14.31-9.54-24.36-9.54-7.83,0-12.94,3.57-12.94,8.17,0,12.26,48.71,2,48.71,35.26,0,15-12.77,26.39-35.6,26.39C887.27,117.47,873.47,112.71,864.79,104.7Z"/><path class="cls-1" d="M957.43,95V52.08H943.81V33.17h13.62V10.69h21.8V33.17h16.69V52.08H979.23V89.2c0,5.11,2.73,9,7.5,9,3.23,0,6.3-1.19,7.49-2.39l4.6,16.35c-3.24,2.9-9,5.28-18.06,5.28C965.61,117.47,957.43,109.64,957.43,95Z"/><path class="cls-1" d="M5.45,319.8V206.2H50.24c35.6,0,60.29,22.65,60.29,56.88S85.84,319.8,50.24,319.8Zm80.39-56.72c0-20.09-12.27-35.59-35.6-35.59H29.63v71H50.24C72.72,298.51,85.84,282.33,85.84,263.08Z"/><path class="cls-1" d="M121.94,278.58c0-23.33,16.35-43.09,43.42-43.09,27.25,0,43.6,19.76,43.6,43.09,0,23.5-16.35,43.26-43.6,43.26C138.29,321.84,121.94,302.08,121.94,278.58Zm64.54,0c0-12.77-7.66-23.84-21.12-23.84s-20.94,11.07-20.94,23.84c0,12.94,7.49,24,20.94,24S186.48,291.52,186.48,278.58Z"/><path class="cls-1" d="M225,319.8V237.54H246.6v11.24c5.79-7.33,16-13.29,26.22-13.29v21.12a28.71,28.71,0,0,0-6-.51c-7.15,0-16.69,4.09-20.26,9.37V319.8Z"/><path class="cls-1" d="M388.29,319.8V267.85c0-7.66-3.41-13.11-12.26-13.11-7.67,0-14,5.11-17,9.54V319.8H337.2V267.85c0-7.66-3.41-13.11-12.27-13.11-7.49,0-13.79,5.11-17,9.71V319.8H286.27V237.54H307.9v10.73c3.41-4.94,14.31-12.78,26.91-12.78,12.09,0,19.76,5.62,22.82,15,4.77-7.49,15.67-15,28.27-15,15.16,0,24.19,8,24.19,24.87V319.8Z"/><path class="cls-1" d="M429.16,215.74a12.94,12.94,0,1,1,12.94,12.94A13,13,0,0,1,429.16,215.74Zm2.21,104.06V237.54H453V319.8Z"/><path class="cls-1" d="M469.18,278.58c0-23.84,17.54-43.09,42.57-43.09,24.53,0,41.22,18.4,41.22,45.31v4.76H491.83c1.36,10.39,9.71,19.08,23.67,19.08,7,0,16.69-3.07,22-8.18l9.54,14c-8.18,7.49-21.12,11.41-33.89,11.41C488.08,321.84,469.18,305,469.18,278.58Zm42.57-25.89c-13.45,0-19.24,10.05-20.26,18.23H532C531.51,263.08,526.06,252.69,511.75,252.69Z"/><path class="cls-1" d="M624.15,319.8V270.07c0-11.42-6-15.33-15.15-15.33a23.44,23.44,0,0,0-18.74,9.71V319.8H568.63V237.54h21.63v10.73A37.64,37.64,0,0,1,619,235.49c18.06,0,26.74,10.22,26.74,26.23V319.8Z"/><path class="cls-1" d="M723.78,319.8V309.24a32,32,0,0,1-25.38,12.6c-20.77,0-36.44-15.67-36.44-43.09,0-26.91,15.5-43.26,36.44-43.26a31.67,31.67,0,0,1,25.38,12.61V206.2h21.8V319.8Zm0-26.57V264.1c-3.58-5.45-11.41-9.36-18.73-9.36-12.27,0-20.78,9.71-20.78,24,0,14.14,8.51,23.84,20.78,23.84C712.37,302.59,720.2,298.68,723.78,293.23Z"/><path class="cls-1" d="M761.76,278.58c0-23.33,16.35-43.09,43.43-43.09,27.25,0,43.59,19.76,43.59,43.09,0,23.5-16.34,43.26-43.59,43.26C778.11,321.84,761.76,302.08,761.76,278.58Zm64.54,0c0-12.77-7.66-23.84-21.11-23.84s-21,11.07-21,23.84c0,12.94,7.49,24,21,24S826.3,291.52,826.3,278.58Z"/></svg>