<svg id="Layer_1" data-name="Layer 1" xmlns="http://www.w3.org/2000/svg" viewBox="0 0 1809.21 500"><defs><style>.cls-1{fill:#38d39f;}.cls-2{fill:#2d2d2d;}</style></defs><title>wordmarklogo</title><rect class="cls-1" x="0.5" y="0.5" width="499" height="499"/><path d="M499,1V499H1V1H499m1-1H0V500H500V0Z"/><path class="cls-2" d="M476,24V476H24V24H476M500,0H0V500H500V0Z"/><path class="cls-2" d="M78.58,250c0-58.47,44.2-98.4,101.25-98.4,41.93,0,66.17,22.82,79.58,46.49l-34.8,17.11c-8-15.4-25.1-27.66-44.78-27.66-34.51,0-59.61,26.52-59.61,62.46s25.1,62.46,59.61,62.46c19.68,0,36.79-12,44.78-27.66l34.8,16.82c-13.69,23.68-37.65,46.78-79.58,46.78C122.78,348.4,78.58,308.47,78.58,250Z"/><path class="cls-2" d="M377.49,345V327.3C366.65,341,351.54,348.4,335,348.4c-34.8,0-61-26.24-61-72.16,0-45.06,26-72.45,61-72.45a53,53,0,0,1,42.5,21.11V154.74H414V345Zm0-44.5V251.71c-6-9.13-19.11-15.69-31.37-15.69-20.54,0-34.8,16.26-34.8,40.22,0,23.67,14.26,39.93,34.8,39.93C358.38,316.17,371.5,309.61,377.49,300.48Z"/><path class="cls-2" d="M584,124.68c0-42.82,32.38-72.06,74.15-72.06,30.71,0,48.46,16.71,58.28,34L690.94,99.2c-5.84-11.28-18.38-20.27-32.79-20.27-25.27,0-43.65,19.43-43.65,45.75s18.38,45.74,43.65,45.74a37.34,37.34,0,0,0,32.79-20.26l25.49,12.32c-10,17.34-27.57,34.26-58.28,34.26C616.38,196.74,584,167.5,584,124.68Z"/><path class="cls-2" d="M794.12,194.23V183.79c-6.89,8.15-18.79,13-32,13-16.09,0-35.09-10.86-35.09-33.42,0-23.6,19-32.58,35.09-32.58,13.36,0,25.27,4.38,32,12.32V129.48c0-10.23-8.77-16.92-22.14-16.92-10.86,0-20.89,4-29.45,11.91l-10-17.75c12.32-10.87,28.19-15.88,44.07-15.88,23,0,44.07,9.19,44.07,38.22v65.17Zm0-24.23V157.47c-4.38-5.85-12.74-8.77-21.3-8.77-10.44,0-19,5.43-19,15.25,0,9.4,8.57,14.83,19,14.83C781.38,178.78,789.74,175.85,794.12,170Z"/><path class="cls-2" d="M847,194.23V93.35h26.52v13.78c7.1-9,19.64-16.29,32.17-16.29v25.9a35.07,35.07,0,0,0-7.31-.63c-8.77,0-20.47,5-24.86,11.49v66.63Z"/><path class="cls-2" d="M922.16,194.23V54.91h26.52V194.23Z"/><path class="cls-2" d="M968.52,143.69c0-28.62,20.06-52.85,53.27-52.85,33.42,0,53.47,24.23,53.47,52.85,0,28.82-20,53.05-53.47,53.05C988.58,196.74,968.52,172.51,968.52,143.69Zm79.17,0c0-15.67-9.4-29.25-25.9-29.25s-25.7,13.58-25.7,29.25c0,15.87,9.19,29.45,25.7,29.45S1047.69,159.56,1047.69,143.69Z"/><path class="cls-2" d="M1149,194.23V54.91h98.59V81h-68.93v29.45h67.47v26.11h-67.47v57.65Z"/><path class="cls-2" d="M1261.15,143.69c0-28.62,20-52.85,53.26-52.85,33.42,0,53.47,24.23,53.47,52.85,0,28.82-20.05,53.05-53.47,53.05C1281.2,196.74,1261.15,172.51,1261.15,143.69Zm79.16,0c0-15.67-9.4-29.25-25.9-29.25s-25.69,13.58-25.69,29.25c0,15.87,9.19,29.45,25.69,29.45S1340.31,159.56,1340.31,143.69Z"/><path class="cls-2" d="M1387.51,194.23V93.35H1414v13.78c7.1-9,19.63-16.29,32.16-16.29v25.9a35,35,0,0,0-7.31-.63c-8.77,0-20.47,5-24.85,11.49v66.63Z"/><path class="cls-2" d="M1462.7,194.23V93.35h26.53v13.78c7.1-9,19.63-16.29,32.16-16.29v25.9a35,35,0,0,0-7.31-.63c-8.77,0-20.47,5-24.85,11.49v66.63Z"/><path class="cls-2" d="M1531.41,143.69c0-29.25,21.52-52.85,52.22-52.85,30.08,0,50.55,22.56,50.55,55.56v5.85h-75c1.68,12.74,11.91,23.39,29,23.39,8.56,0,20.47-3.76,26.94-10l11.7,17.13c-10,9.19-25.9,14-41.57,14C1554.6,196.74,1531.41,176.06,1531.41,143.69Zm52.22-31.75c-16.5,0-23.6,12.32-24.85,22.35h49.71C1607.86,124.68,1601.18,111.94,1583.63,111.94Z"/><path class="cls-2" d="M1644.62,181.07l11.49-18.59c7.31,6.9,22.35,13.79,34.88,13.79,11.49,0,16.92-4.59,16.92-10.86,0-16.71-60-3.13-60-42.82,0-16.92,14.83-31.75,41.36-31.75,17.13,0,30.7,5.85,40.73,13.79L1719.4,122.8c-6.06-6.48-17.55-11.7-29.87-11.7-9.61,0-15.88,4.39-15.88,10,0,15,59.74,2.5,59.74,43.23,0,18.39-15.66,32.38-43.65,32.38C1672.19,196.74,1655.27,190.89,1644.62,181.07Z"/><path class="cls-2" d="M1758.24,169.17V116.53h-16.71V93.35h16.71V65.78H1785V93.35h20.47v23.18H1785v45.54c0,6.26,3.34,11.07,9.19,11.07,4,0,7.73-1.46,9.19-2.93l5.64,20c-4,3.56-11.07,6.48-22.14,6.48C1768.27,196.74,1758.24,187.13,1758.24,169.17Z"/><path class="cls-2" d="M590.68,444.88V305.56h54.94c43.65,0,73.94,27.78,73.94,69.76s-30.29,69.56-73.94,69.56Zm98.59-69.56c0-24.65-15-43.65-43.65-43.65H620.34v87.1h25.28C673.19,418.77,689.27,398.92,689.27,375.32Z"/><path class="cls-2" d="M733.55,394.33c0-28.62,20.05-52.85,53.26-52.85,33.42,0,53.47,24.23,53.47,52.85,0,28.82-20,53.05-53.47,53.05C753.6,447.38,733.55,423.15,733.55,394.33Zm79.16,0c0-15.67-9.4-29.24-25.9-29.24s-25.69,13.57-25.69,29.24c0,15.87,9.19,29.45,25.69,29.45S812.71,410.2,812.71,394.33Z"/><path class="cls-2" d="M859.91,444.88V344h26.53v13.79c7.1-9,19.63-16.3,32.17-16.3v25.9a35.85,35.85,0,0,0-7.31-.62c-8.78,0-20.48,5-24.86,11.49v66.63Z"/><path class="cls-2" d="M1060.22,444.88V381.17c0-9.4-4.18-16.08-15-16.08-9.4,0-17.13,6.26-20.89,11.69v68.1H997.55V381.17c0-9.4-4.17-16.08-15-16.08-9.19,0-16.92,6.26-20.89,11.9v67.89H935.1V344h26.53v13.16c4.18-6.06,17.54-15.67,33-15.67,14.83,0,24.23,6.9,28,18.38,5.85-9.19,19.22-18.38,34.67-18.38,18.59,0,29.66,9.82,29.66,30.5v72.9Z"/><path class="cls-2" d="M1110.34,317.25a15.88,15.88,0,1,1,15.88,15.88A16,16,0,0,1,1110.34,317.25Zm2.72,127.63V344h26.52V444.88Z"/><path class="cls-2" d="M1159.42,394.33c0-29.24,21.52-52.85,52.22-52.85,30.08,0,50.55,22.56,50.55,55.57v5.84h-75c1.68,12.74,11.91,23.4,29,23.4,8.56,0,20.47-3.76,26.94-10l11.7,17.13c-10,9.19-25.9,14-41.57,14C1182.61,447.38,1159.42,426.71,1159.42,394.33Zm52.22-31.75c-16.5,0-23.6,12.32-24.85,22.35h49.71C1235.87,375.32,1229.19,362.58,1211.64,362.58Z"/><path class="cls-2" d="M1349.5,444.88v-61c0-14-7.32-18.8-18.6-18.8a28.73,28.73,0,0,0-23,11.9v67.89H1281.4V344h26.53v13.16c6.47-7.73,18.8-15.67,35.3-15.67,22.14,0,32.79,12.54,32.79,32.17v71.23Z"/><path class="cls-2" d="M1471.68,444.88V431.93c-7.94,10-19,15.45-31.12,15.45-25.48,0-44.7-19.21-44.7-52.84,0-33,19-53.06,44.7-53.06a38.86,38.86,0,0,1,31.12,15.46V305.56h26.74V444.88Zm0-32.59V376.57c-4.38-6.68-14-11.48-23-11.48-15,0-25.49,11.9-25.49,29.45,0,17.33,10.45,29.24,25.49,29.24C1457.69,423.78,1467.3,419,1471.68,412.29Z"/><path class="cls-2" d="M1518.26,394.33c0-28.62,20-52.85,53.26-52.85,33.42,0,53.47,24.23,53.47,52.85,0,28.82-20,53.05-53.47,53.05C1538.31,447.38,1518.26,423.15,1518.26,394.33Zm79.16,0c0-15.67-9.4-29.24-25.9-29.24s-25.69,13.57-25.69,29.24c0,15.87,9.19,29.45,25.69,29.45S1597.42,410.2,1597.42,394.33Z"/></svg>